<svg width="358" height="260" viewBox="0 0 358 260" fill="none" xmlns="http://www.w3.org/2000/svg">
<path d="M42.4221 90.24L35.2921 105.29C33.3021 107.63 30.1121 107.09 28.5121 104.67L20.7921 90.32C19.6621 90.01 18.4621 90.32 17.3221 90.19C8.26211 89.27 0.942109 81.9 0.162109 72.81V17.39C0.952109 8.24 8.40212 0.79 17.5521 0H95.0521C104.132 0.78 111.522 8.11 112.432 17.16V72.81C111.662 81.89 104.332 89.27 95.2821 90.19L42.4321 90.23L42.4221 90.24ZM68.7321 39.08C69.6021 33.25 61.3021 30.76 58.6021 35.78C57.9921 36.91 57.0721 39.92 59.0621 40.06C61.2421 40.2 60.1621 38.18 60.9721 36.95C61.7821 35.72 63.6621 35.29 64.9221 36.12C65.0121 36.18 66.0221 37.19 66.0521 37.26C66.6721 38.65 65.9421 40.22 68.7321 39.08ZM54.3421 39.32C55.2121 33.49 46.9121 31 44.2121 36.02C43.6021 37.15 42.6821 40.16 44.6721 40.3C46.8521 40.44 45.7721 38.42 46.5821 37.19C47.3921 35.96 49.2721 35.53 50.5321 36.36C50.6221 36.42 51.6321 37.43 51.6621 37.5C52.2821 38.89 51.5521 40.46 54.3421 39.32ZM79.2421 34.63C76.4421 34.77 76.9521 38.62 76.6121 40.61C73.5321 58.98 50.3021 63.91 40.2621 48.79C37.5521 44.7 38.2221 42.69 36.9821 38.64C35.6621 34.35 31.4021 36.21 31.8521 41.13C32.6721 50.12 40.6521 58.78 48.9721 61.67C64.6921 67.13 81.0721 55.94 82.1721 39.45C82.2921 37.62 81.7121 34.51 79.2421 34.63Z" fill="black"/>
<path d="M111.422 169.9C130.272 168.23 144.172 183.27 140.382 201.98C136.072 223.3 108.242 229.71 94.3117 213.49C80.8117 197.77 90.3117 171.78 111.422 169.91V169.9ZM112.372 184.05C101.472 185.35 100.762 204.19 110.272 207.6C117.402 210.16 124.592 206.09 125.352 198.46C126.242 189.51 122.042 182.89 112.372 184.05Z" fill="black"/>
<path d="M17.1921 131.69H32.7821V113.34C32.7821 113.04 33.5321 112.77 33.8521 112.73C37.7521 112.2 42.8021 113.16 46.8321 112.73C47.6321 112.76 48.2421 113.47 48.1521 114.29L48.0821 163.42L46.8221 164.32C42.7921 163.89 37.7421 164.84 33.8421 164.32C33.5221 164.28 32.7721 164.01 32.7721 163.71V144.16H17.1821V163.47C17.1821 163.62 16.2221 164.47 15.8721 164.32C11.8221 163.9 6.82207 164.83 2.89207 164.32C2.55207 164.28 2.27207 164.26 2.04207 163.97L1.87207 113.39C2.05207 112.87 2.40207 112.8 2.89207 112.73C6.80207 112.21 11.8321 113.15 15.8721 112.73C16.2221 112.58 17.1821 113.44 17.1821 113.58V131.69H17.1921Z" fill="black"/>
<path d="M152.663 14.4704C152.943 14.7704 152.943 15.3204 152.973 15.7204C153.473 21.5004 152.893 28.5004 152.953 34.4504C153.083 47.0404 153.363 59.7204 153.213 72.3504C152.823 75.3104 147.393 73.3804 145.683 72.6604C136.083 68.6604 126.653 62.5204 117.053 58.3504C115.863 57.5704 115.423 56.9904 115.293 55.5504C114.783 50.0904 115.053 41.4804 115.293 35.8604C115.333 34.8604 115.413 32.3804 115.593 31.6004C115.733 30.9804 116.613 30.1504 117.143 29.7904L146.013 15.0004C147.523 14.3904 151.423 13.1304 152.663 14.4604V14.4704Z" fill="black"/>
<path d="M88.8819 112.78L107.102 163.42C107.032 163.64 106.952 163.92 106.792 164.08C106.142 164.72 93.2519 164.1 91.3419 164.29L88.5219 156.19L71.7919 156.14C71.2919 157.26 69.6119 164.01 68.8519 164.27L53.8919 164.19L53.4619 163.41L71.7619 112.97L88.8919 112.77L88.8819 112.78ZM75.9619 144.17H84.6019L80.1619 130.98L75.9619 144.17Z" fill="black"/>
<path d="M293.303 128.82C294.343 123.77 285.533 122.33 286.363 127.73C286.573 129.09 288.233 130.12 289.373 130.71C296.713 134.56 309.333 135.65 310.333 146.45C312.483 169.85 274.113 170.37 270.343 151.17C270.213 150.49 269.593 147.28 270.633 147.28H286.103C286.083 150.8 287.893 152.77 291.503 152.32C293.663 152.05 294.753 150.38 294.093 148.28C293.323 145.8 286.013 144.07 283.643 143.14C277.653 140.81 271.613 138.1 270.333 131.03C266.123 107.73 305.833 105.34 309.503 125.44C309.613 126.04 310.143 128.81 309.253 128.81H293.303V128.82Z" fill="black"/>
<path d="M175.041 147.28V163.47C175.041 163.62 174.081 164.47 173.731 164.32C169.691 163.9 164.661 164.84 160.751 164.32C160.261 164.25 159.911 164.18 159.731 163.66L159.901 113.08L160.751 112.73C172.341 113.84 190.681 108.82 198.071 120.53C202.671 127.82 201.141 138.7 193.921 143.74C188.221 147.72 181.711 147.39 175.031 147.28H175.041ZM175.041 134.81H181.641C182.381 134.81 184.111 133.56 184.501 132.87C185.461 131.2 185.291 127.73 183.801 126.41C183.251 125.92 181.121 125.21 180.441 125.21H175.041V134.8V134.81Z" fill="black"/>
<path d="M127.782 147.28V163.47C127.782 163.62 126.822 164.47 126.472 164.32C122.432 163.9 117.402 164.84 113.492 164.32C113.002 164.25 112.652 164.18 112.472 163.66L112.642 113.08L113.492 112.73C125.082 113.84 143.422 108.82 150.812 120.53C155.412 127.82 153.882 138.7 146.662 143.74C140.962 147.72 134.452 147.39 127.772 147.28H127.782ZM127.782 134.81H134.382C135.122 134.81 136.852 133.56 137.242 132.87C138.202 131.2 138.032 127.73 136.542 126.41C135.992 125.92 133.862 125.21 133.182 125.21H127.782V134.8V134.81Z" fill="black"/>
<path d="M17.1918 205.09V221.28C17.1918 221.43 16.2318 222.28 15.8818 222.13C11.8418 221.71 6.81184 222.65 2.90184 222.13C2.41184 222.06 2.06184 221.99 1.88184 221.47L2.05184 170.89L2.90184 170.54C14.4918 171.65 32.8318 166.63 40.2218 178.34C44.8218 185.63 43.2918 196.51 36.0718 201.55C30.3718 205.53 23.8618 205.2 17.1818 205.09H17.1918ZM17.1918 192.61H23.7918C24.5318 192.61 26.2618 191.36 26.6518 190.67C27.6118 189 27.4418 185.53 25.9518 184.21C25.4018 183.72 23.2718 183.01 22.5918 183.01H17.1918V192.6V192.61Z" fill="black"/>
<path d="M163.282 205.09V221.28C163.282 221.43 162.322 222.28 161.972 222.13C157.932 221.71 152.902 222.65 148.992 222.13C148.502 222.06 148.152 221.99 147.972 221.47L148.142 170.89L148.992 170.54C160.582 171.65 178.922 166.63 186.312 178.34C190.912 185.63 189.382 196.51 182.162 201.55C176.462 205.53 169.952 205.2 163.272 205.09H163.282ZM163.282 192.61H169.882C170.622 192.61 172.352 191.36 172.742 190.67C173.702 189 173.532 185.53 172.042 184.21C171.492 183.72 169.362 183.01 168.682 183.01H163.282V192.6V192.61Z" fill="black"/>
<path d="M246.042 125.22V132.18H261.272C261.272 132.18 261.872 132.74 261.872 132.78V143.57L261.512 143.93H246.042V151.84H263.432C263.732 151.84 264.002 152.59 264.042 152.91C264.322 154.96 264.252 160.87 264.042 163.01C263.982 163.58 264.032 164.04 263.382 164.27L231.752 164.33L230.902 163.98V113.09L263.382 112.8C264.032 113.03 263.992 113.49 264.042 114.06C264.252 116.2 264.312 122.11 264.042 124.16C264.002 124.48 263.732 125.23 263.432 125.23H246.042V125.22Z" fill="black"/>
<path d="M247.483 183.02V189.98H262.713C262.713 189.98 263.313 190.54 263.313 190.58V201.37L262.953 201.73H247.483V209.64H264.873C265.173 209.64 265.443 210.39 265.483 210.71C265.763 212.76 265.693 218.67 265.483 220.81C265.423 221.38 265.473 221.84 264.823 222.07L233.193 222.13L232.343 221.78V170.89L264.823 170.6C265.473 170.83 265.433 171.29 265.483 171.86C265.693 174 265.753 179.91 265.483 181.96C265.443 182.28 265.173 183.03 264.873 183.03H247.483V183.02Z" fill="black"/>
<path d="M64.4515 183.02V189.98H79.6815C79.6815 189.98 80.2815 190.54 80.2815 190.58V201.37L79.9215 201.73H64.4515V209.64H81.8415C82.1415 209.64 82.4115 210.39 82.4515 210.71C82.7315 212.76 82.6615 218.67 82.4515 220.81C82.3915 221.38 82.4415 221.84 81.7915 222.07L50.1615 222.13L49.3115 221.78V170.89L81.7915 170.6C82.4415 170.83 82.4015 171.29 82.4515 171.86C82.6615 174 82.7215 179.91 82.4515 181.96C82.4115 182.28 82.1415 183.03 81.8415 183.03H64.4515V183.02Z" fill="black"/>
<path d="M343.442 125.22V163.71C343.442 164.14 342.492 164.29 342.142 164.32C339.482 164.59 331.952 164.66 329.402 164.32C329.082 164.28 328.332 164.01 328.332 163.71V125.22H315.742C315.442 125.22 314.942 124.3 314.892 123.91C314.652 122.12 314.652 115.85 314.892 114.05C315.002 113.19 315.552 112.68 316.452 112.73L356.242 112.79C356.892 113.02 356.852 113.48 356.902 114.05C357.112 116.19 357.172 122.1 356.902 124.15C356.862 124.47 356.592 125.22 356.292 125.22H343.462H343.442Z" fill="black"/>
<path d="M210.542 210.12H225.532C225.962 210.49 226.072 210.89 226.132 211.43C226.352 213.31 226.382 218.95 226.132 220.8C226.052 221.42 225.802 221.78 225.232 222.06L195.652 221.99L195.222 221.46V171.19C195.402 170.67 195.752 170.6 196.242 170.53C200.152 170.01 205.182 170.95 209.222 170.53C209.572 170.38 210.532 171.24 210.532 171.38V210.11L210.542 210.12Z" fill="black"/>
<path d="M207.352 112.8L221.472 112.97L222.002 113.64L222.072 163.01L221.162 164.26L207.182 164.19L206.752 163.66L206.822 113.23L207.352 112.8Z" fill="black"/>
<path d="M200.462 235.31L208.262 251.14L207.902 235.31H213.182V258.81H207.542L199.392 242.74L199.752 258.81H194.472V235.31H200.462Z" fill="black"/>
<path d="M43.1014 258.81H36.6214L32.6714 250.89L29.9114 250.65V258.8H24.1514V235.3H35.0614C35.8914 235.3 38.3414 236.26 39.1014 236.78C42.6314 239.21 42.9014 245.16 39.9814 248.13C39.5714 248.54 38.0614 249.31 38.0914 249.77L43.1014 258.81ZM29.9114 246.1H33.3914C33.6914 246.1 35.2714 245.41 35.5514 245.15C36.4014 244.35 36.6314 242.42 36.2014 241.37C36.0214 240.93 34.6914 239.87 34.3414 239.87H29.9014V246.11L29.9114 246.1Z" fill="black"/>
<path d="M54.3223 234.89C72.1523 232.62 70.6123 263.29 53.1823 258.93C42.4623 256.25 42.7923 236.36 54.3223 234.89ZM55.5123 239.68C49.3223 240.67 49.9023 254.86 56.4023 254.5C62.9023 254.14 62.7423 238.52 55.5123 239.68Z" fill="black"/>
<path d="M177.622 234.89C195.452 232.62 193.902 263.29 176.482 258.93C165.762 256.25 166.092 236.36 177.622 234.89ZM178.812 239.68C172.622 240.67 173.202 254.86 179.702 254.5C186.202 254.14 186.042 238.52 178.812 239.68Z" fill="black"/>
<path d="M71.1719 258.81V235.31H80.4119C81.0519 235.31 83.9319 236.27 84.6219 236.62C91.8019 240.26 91.6619 253.75 84.5819 257.47C83.7719 257.9 81.2319 258.82 80.4119 258.82H71.1719V258.81ZM76.9219 254.25C81.5919 254.64 83.9819 251.9 84.1319 247.43C84.2919 242.53 82.1319 239.44 76.9219 239.86V254.25Z" fill="black"/>
<path d="M99.7122 235.31V250.06C99.7122 250.83 100.452 252.95 101.022 253.55C102.252 254.83 105.022 254.75 106.292 253.52C106.892 252.94 107.632 250.84 107.632 250.06V235.31H112.912V251.02C112.912 251.7 112.032 254.37 111.682 255.07C108.992 260.46 99.7621 260.77 96.2321 256.18C95.4121 255.12 94.2021 251.82 94.2021 250.54V235.31H99.7222H99.7122Z" fill="black"/>
<path d="M8.32153 251.13V258.8H2.56152V235.3H13.2315C13.7615 235.3 15.9215 236.05 16.5215 236.33C21.7415 238.8 21.4415 247.05 16.6415 249.74C15.5515 250.35 13.0015 251.13 11.7915 251.13H8.31152H8.32153ZM12.5115 239.86C11.3715 239.62 9.55152 240.03 8.31152 239.86V246.58C10.9515 246.68 14.5415 246.78 14.7915 243.34C14.9015 241.81 14.1015 240.2 12.5015 239.87L12.5115 239.86Z" fill="black"/>
<path d="M231.382 241.27H230.872C229.312 239.39 222.132 238.67 223.912 242.45C224.392 243.46 230.352 245.34 231.822 246.3C236.022 249.06 235.612 255.22 231.492 257.82C227.142 260.56 220.562 259.46 217.022 255.82L220.052 252.37C222.052 253.75 225.832 255.36 228.142 253.99C229.312 253.29 229.262 251.91 228.272 251.04C225.342 248.44 218.912 248.9 218.032 243.29C216.662 234.56 229.122 232.28 234.032 237.83L231.372 241.28L231.382 241.27Z" fill="black"/>
<path d="M126.773 234.89C129.943 234.51 133.293 235.41 135.443 237.85L132.463 241.29C128.933 238.11 124.563 239.74 123.353 244.18C121.483 251.03 126.133 257.89 132.913 252.59L135.683 255.62C135.953 256.65 132.423 258.54 131.523 258.82C115.283 264 111.773 236.7 126.783 234.89H126.773Z" fill="black"/>
<path d="M155.132 235.31V239.74L154.772 240.1H148.652V258.81H143.132V240.1H137.012L136.662 239.74V235.31H155.132Z" fill="black"/>
<path d="M164.482 258.81H158.722V235.31H164.122L164.482 235.67V258.81Z" fill="black"/>
</svg>
