<svg width="91" height="91" viewBox="0 0 91 91" fill="none" xmlns="http://www.w3.org/2000/svg">
<circle cx="45.5" cy="45.5" r="45.5" fill="#100F0F"/>
<path d="M25.656 68.468C26.112 68.06 26.616 67.496 27.168 66.776C27.72 66.08 28.248 65.24 28.752 64.256C29.28 63.296 29.688 62.252 29.976 61.124C30.096 60.644 30.18 60.164 30.228 59.684C30.276 59.204 30.312 58.736 30.336 58.28V35.204C29.808 34.964 29.232 34.808 28.608 34.736C27.984 34.664 27.504 34.628 27.168 34.628V33.548H36.672V34.628C36.336 34.628 35.856 34.664 35.232 34.736C34.632 34.808 34.056 34.964 33.504 35.204V59C33.12 60.584 32.58 61.976 31.884 63.176C31.188 64.4 30.456 65.444 29.688 66.308C28.944 67.172 28.272 67.844 27.672 68.324C27.072 68.828 26.664 69.152 26.448 69.296L25.656 68.468ZM60.9208 59.504L44.7568 38.048V57.344C45.3088 57.584 45.8848 57.74 46.4848 57.812C47.1088 57.884 47.5888 57.92 47.9248 57.92V59H39.5728V57.92C39.9088 57.92 40.3888 57.884 41.0128 57.812C41.6368 57.74 42.2128 57.584 42.7408 57.344V35.204C42.2128 34.964 41.6368 34.808 41.0128 34.736C40.3888 34.664 39.9088 34.628 39.5728 34.628V33.548H45.2968L60.5248 53.708V35.204C59.9968 34.964 59.4208 34.808 58.7968 34.736C58.1728 34.664 57.6928 34.628 57.3568 34.628V33.548H65.7088V34.628C65.3728 34.628 64.8928 34.664 64.2688 34.736C63.6688 34.808 63.0928 34.964 62.5408 35.204V59.504H60.9208Z" fill="white"/>
</svg>
