<svg width="85" height="60" viewBox="0 0 85 60" fill="none" xmlns="http://www.w3.org/2000/svg">
<path d="M23.7091 50.4821L19.7907 58.7531C18.697 60.0391 16.9439 59.7423 16.0646 58.4124L11.822 50.5261C11.2009 50.3557 10.5415 50.5261 9.91495 50.4546C4.93587 49.949 0.913038 45.8987 0.484375 40.9032V10.4461C0.918533 5.41759 5.01281 1.32332 10.0414 0.88916H52.6328C57.6229 1.31782 61.6842 5.34615 62.1843 10.3197V40.9032C61.7611 45.8932 57.7328 49.949 52.7592 50.4546L23.7146 50.4766L23.7091 50.4821ZM38.1682 22.3663C38.6463 19.1623 34.0849 17.7938 32.6011 20.5527C32.2659 21.1737 31.7603 22.8279 32.8539 22.9048C34.0519 22.9818 33.4584 21.8716 33.9036 21.1957C34.3487 20.5197 35.3819 20.2834 36.0744 20.7395C36.1238 20.7725 36.6789 21.3276 36.6954 21.366C37.0361 22.1299 36.6349 22.9928 38.1682 22.3663ZM30.2599 22.4981C30.7381 19.2942 26.1767 17.9257 24.6928 20.6846C24.3576 21.3056 23.852 22.9598 24.9456 23.0367C26.1437 23.1137 25.5501 22.0035 25.9953 21.3276C26.4404 20.6516 27.4736 20.4153 28.1661 20.8714C28.2155 20.9044 28.7706 21.4595 28.7871 21.4979C29.1278 22.2618 28.7266 23.1247 30.2599 22.4981ZM43.9442 19.9207C42.4054 19.9976 42.6857 22.1134 42.4988 23.2071C40.8061 33.3026 28.0397 36.012 22.522 27.7026C21.0327 25.4548 21.4009 24.3502 20.7194 22.1244C19.994 19.7668 17.6529 20.789 17.9002 23.4929C18.3508 28.4335 22.7364 33.1927 27.3088 34.781C35.948 37.7816 44.9499 31.632 45.5544 22.5696C45.6203 21.5639 45.3016 19.8547 43.9442 19.9207Z" fill="#FBCF1D"/>
<path d="M84.2933 8.84146C84.4472 9.00633 84.4472 9.30859 84.4637 9.52842C84.7385 12.7049 84.4197 16.5519 84.4527 19.8218C84.5241 26.7409 84.678 33.7094 84.5956 40.6504C84.3812 42.2771 81.3971 41.2165 80.4573 40.8208C75.1815 38.6225 69.9991 35.2482 64.7232 32.9565C64.0692 32.5278 63.8274 32.2091 63.756 31.4177C63.4757 28.417 63.6241 23.6853 63.756 20.5967C63.778 20.0471 63.8219 18.6842 63.9208 18.2555C63.9978 17.9148 64.4814 17.4587 64.7727 17.2608L80.6387 9.13273C81.4685 8.79749 83.6118 8.10504 84.2933 8.83596V8.84146Z" fill="#FBCF1D"/>
</svg>
